<svg width="99" height="15" viewBox="0 0 99 15" fill="none" xmlns="http://www.w3.org/2000/svg">
<path d="M8.57404 0.115479C10.5705 0.115479 12.0492 0.4735 13.0102 1.18953C13.9711 1.89873 14.4516 2.94889 14.4516 4.34002C14.4516 5.28107 14.2031 6.06869 13.7061 6.70289C13.2173 7.33026 12.5338 7.80077 11.6557 8.11444C10.7776 8.42131 9.75038 8.57475 8.57404 8.57475H1.21775V14.9371H0V0.115479H8.57404ZM8.47465 7.63369C9.3859 7.63369 10.1977 7.51095 10.9102 7.26547C11.6226 7.01996 12.1818 6.65171 12.5877 6.16073C13.0019 5.66974 13.209 5.06285 13.209 4.34002C13.209 3.26939 12.8155 2.45447 12.0285 1.89529C11.2415 1.3293 10.0569 1.04631 8.47465 1.04631H1.21778V7.63369H8.47465Z" fill="white"/>
<path d="M32.4711 14.9545C31.0679 14.9545 29.8392 14.7225 28.7849 14.2586C27.7306 13.788 26.9167 13.1459 26.343 12.3324C25.7771 11.5188 25.4941 10.6078 25.4941 9.59931V0.0285645H26.6453V9.57914C26.6453 10.4599 26.8973 11.2365 27.4012 11.9088C27.9128 12.5744 28.6105 13.0921 29.4942 13.4619C30.378 13.8249 31.3703 14.0065 32.4711 14.0065C33.6339 14.0065 34.6533 13.8149 35.5293 13.4316C36.413 13.0417 37.0913 12.5106 37.5642 11.8382C38.0448 11.1659 38.2851 10.4128 38.2851 9.57914V0.0285645H39.4247V9.59931C39.4247 10.6549 39.1263 11.5894 38.5293 12.403C37.9402 13.2165 37.1146 13.8452 36.0525 14.2889C34.9983 14.7326 33.8044 14.9545 32.4711 14.9545Z" fill="white"/>
<path d="M52.031 0H53.6344L61.1748 12.5432L61.6803 13.5326L62.2004 12.5432L69.7118 0H71.3441V14.9343H69.9429V2.84464L70.0151 1.90672L62.1137 14.9343H61.247L53.3455 1.90672L53.4322 2.84464V14.9343H52.031V0Z" fill="white"/>
<path d="M89.783 0.0915527H91.0808L98.5779 14.8006H97.2297L95.1129 10.6183H85.7509L83.6215 14.8006H82.2859L89.783 0.0915527ZM94.7223 9.75547L90.5768 1.65482L90.4256 1.2386L90.2744 1.65482L86.1289 9.75547H94.7223Z" fill="white"/>
</svg>
